<svg xmlns="http://www.w3.org/2000/svg" version="1.0" width="300.000000pt" height="200.000000pt" viewBox="0 0 300.000000 200.000000" preserveAspectRatio="xMidYMid meet">
<metadata fill="#f0f8ff">
Created by potrace 1.10, written by Peter Selinger 2001-2011
</metadata>
<g transform="translate(0.000000,200.000000) scale(0.100000,-0.100000)" fill="#f0f8ff" stroke="none">
<path d="M1329 1936 c-2 -3 -3 -25 -1 -51 4 -40 7 -45 23 -40 11 4 19 2 19 -4 0 -6 -9 -11 -19 -11 -11 0 -23 -4 -26 -10 -3 -5 -1 -10 4 -10 6 0 11 -7 11 -15 0 -8 5 -15 11 -15 6 0 9 6 6 13 -3 8 1 14 9 14 21 0 57 -63 49 -86 -4 -13 1 -24 17 -35 12 -9 26 -16 30 -16 15 0 8 51 -13 91 -11 23 -16 38 -10 34 18 -11 12 17 -6 30 -10 8 -19 32 -22 61 -6 48 -23 63 -29 27 -7 -42 -16 -47 -21 -14 -5 31 -20 48 -32 37z" fill="#f0f8ff"/>
<path d="M1140 1899 c-267 -34 -505 -152 -695 -344 -77 -77 -192 -232 -180 -243 3 -3 32 16 65 41 33 26 65 47 70 47 6 0 43 34 83 77 177 188 405 305 666 343 66 10 81 15 79 29 -2 12 7 17 40 19 34 3 42 7 42 23 0 17 -7 19 -52 18 -29 -1 -82 -5 -118 -10z" fill="#f0f8ff"/>
<path d="M1426 1903 c-12 -12 7 -23 40 -23 27 0 34 -4 34 -19 0 -11 -5 -23 -12 -27 -7 -4 17 -13 53 -20 162 -33 325 -100 454 -187 84 -56 226 -197 284 -281 55 -81 103 -172 137 -263 13 -35 34 -78 46 -97 l22 -34 23 25 23 24 -26 77 c-144 418 -492 723 -920 805 -109 21 -151 26 -158 20z" fill="#f0f8ff"/>
<path d="M1445 1857 c-13 -10 -15 -16 -6 -21 12 -8 41 10 41 25 0 13 -13 11 -35 -4z" fill="#f0f8ff"/>
<path d="M1250 1841 c0 -12 29 -41 40 -41 18 0 21 20 4 27 -16 6 -16 7 2 14 15 6 12 8 -13 8 -18 1 -33 -3 -33 -8z" fill="#f0f8ff"/>
<path d="M1313 1737 c8 -48 -12 -364 -27 -435 -8 -37 -33 -111 -55 -164 -56 -131 -61 -186 -28 -353 35 -185 39 -545 5 -545 -7 0 -8 15 -5 37 6 37 -7 35 -16 -2 -3 -11 -5 -1 -6 22 0 23 -6 45 -13 49 -8 5 -9 -5 -4 -37 6 -39 5 -42 -7 -25 -13 18 -14 17 -9 -12 3 -24 0 -32 -11 -32 -9 0 -18 -10 -21 -23 -3 -12 -3 20 0 71 3 52 11 110 18 130 49 131 59 218 31 272 -9 17 -17 30 -18 30 -1 0 0 -23 1 -51 5 -63 -11 -102 -57 -139 -39 -33 -36 -38 8 -15 25 12 41 36 65 95 3 8 3 -1 0 -20 -9 -49 -21 -68 -57 -90 -26 -16 -28 -20 -11 -20 11 0 25 5 32 12 9 9 12 9 12 0 0 -7 -12 -18 -26 -25 l-27 -12 24 -6 24 -7 -25 -1 c-20 -1 -22 -3 -10 -11 12 -8 12 -10 -5 -11 -20 0 -20 0 0 -9 15 -6 16 -9 4 -9 -18 -1 -22 -32 -5 -43 7 -5 6 -8 -4 -8 -13 0 -13 -1 0 -10 13 -9 13 -10 0 -10 -13 0 -13 -1 0 -10 12 -8 12 -10 -5 -10 -12 0 -16 -3 -9 -8 14 -9 12 -94 -2 -99 -8 -3 -11 36 -8 137 2 121 1 140 -13 140 -13 0 -15 -12 -12 -72 3 -97 0 -203 -6 -196 -3 2 -6 17 -7 31 -1 15 -7 27 -13 27 -7 0 -7 3 0 8 16 11 12 66 -5 74 -12 5 -12 7 3 7 19 1 23 16 7 26 -6 4 -8 11 -5 16 4 5 0 9 -7 9 -9 0 -9 3 2 10 13 8 12 10 -4 10 -15 0 -16 3 -6 15 10 12 10 15 -3 15 -9 0 -19 5 -23 11 -4 8 4 9 27 4 36 -8 34 0 -3 19 -12 6 -23 17 -26 24 -2 8 9 6 32 -7 46 -26 46 -14 1 22 -21 16 -35 37 -35 50 l0 21 16 -22 c8 -12 28 -29 44 -37 28 -14 31 -14 64 16 46 40 53 80 32 175 -9 41 -16 89 -16 107 0 18 -7 43 -16 56 -12 17 -13 26 -5 34 6 6 11 26 11 45 0 43 -20 38 -37 -9 -11 -31 -13 -32 -19 -11 -3 12 -12 22 -19 22 -7 0 -16 -10 -19 -22 -7 -23 -7 -23 -15 -3 -5 12 -16 27 -25 34 -14 12 -16 10 -16 -11 0 -29 33 -71 46 -60 5 4 5 3 1 -3 -5 -5 -14 -10 -20 -10 -7 0 -13 -9 -15 -20 -3 -16 -1 -17 7 -5 8 11 11 3 13 -35 l1 -50 4 45 c3 25 9 50 14 55 7 7 10 0 8 -20 -1 -16 2 -38 6 -48 4 -9 4 -28 1 -41 -4 -17 -1 -26 11 -30 9 -4 13 -9 9 -13 -3 -3 -15 2 -27 13 -12 10 -24 18 -28 16 -3 -1 -9 12 -12 30 -4 19 -6 3 -5 -39 1 -40 7 -78 13 -84 15 -15 53 -2 53 18 0 8 11 28 25 45 14 16 25 42 26 56 1 15 5 38 10 52 6 17 7 8 3 -30 -3 -30 -13 -68 -23 -85 -25 -43 -32 -65 -20 -65 5 0 19 19 29 43 15 31 20 36 20 19 0 -40 -27 -92 -49 -92 -11 0 -23 5 -26 10 -9 15 -25 12 -25 -5 0 -8 11 -22 25 -31 25 -16 27 -16 50 6 13 12 28 38 33 59 l10 36 1 -39 c1 -41 -28 -100 -55 -110 -24 -9 -72 30 -79 65 -10 46 -25 22 -31 -52 -5 -49 -2 -78 14 -124 25 -74 39 -209 23 -219 -15 -10 -20 7 -25 94 -6 96 -13 118 -47 158 -31 35 -35 48 -43 132 -2 33 -1 47 4 35 6 -16 10 -8 15 33 4 29 12 55 16 58 13 8 11 -27 -6 -82 -17 -57 -19 -113 -4 -134 8 -11 9 -7 5 17 -3 17 2 56 10 85 8 29 17 65 19 79 1 15 6 36 10 48 9 30 -15 27 -48 -6 -48 -51 -58 -167 -21 -238 28 -53 52 -138 58 -202 6 -62 5 -63 -19 -63 -22 0 -25 3 -20 28 l6 27 -15 -25 c-15 -25 -15 -25 -17 20 -2 44 -2 44 -8 10 l-6 -34 -13 28 c-16 36 -26 29 -12 -8 15 -40 13 -46 -14 -46 -23 0 -24 3 -28 83 -3 70 -1 86 16 110 15 20 20 42 19 75 -1 26 -2 68 -3 94 -1 73 -43 103 -76 53 -10 -15 -14 -34 -10 -50 5 -18 1 -27 -13 -34 -39 -21 -64 -145 -45 -218 8 -30 20 -29 38 5 15 26 15 24 16 -45 0 -72 0 -73 -26 -73 -17 0 -23 4 -18 13 6 9 4 9 -8 -1 -13 -10 -17 -10 -21 0 -4 10 -6 10 -6 1 -1 -7 -7 -13 -15 -13 -9 0 -16 16 -20 43 -18 129 -18 139 -7 133 6 -4 11 -18 11 -31 0 -30 20 -75 33 -75 5 0 6 8 2 18 -4 9 -16 46 -25 80 -26 94 -36 96 -51 10 -7 -40 -12 -86 -11 -101 2 -34 -14 -77 -28 -77 -11 0 -9 92 2 100 11 9 30 170 29 249 -1 83 -26 152 -61 171 -20 11 -21 17 -16 64 7 56 -8 84 -38 73 -18 -7 -109 -173 -104 -189 2 -6 22 13 44 43 38 53 39 53 42 25 2 -19 -4 -36 -19 -52 -40 -43 -35 -218 8 -266 20 -22 28 -90 19 -162 -7 -51 -10 -56 -32 -56 -22 0 -24 4 -24 45 0 57 1 60 23 57 24 -5 23 53 -3 96 -12 19 -24 50 -28 70 -8 36 -9 37 -55 40 -38 3 -51 -1 -70 -20 -31 -30 -92 -74 -83 -59 4 6 1 11 -9 11 -19 0 -23 -10 -29 -73 -3 -27 -10 -55 -17 -63 -10 -12 -8 -17 7 -28 21 -16 40 -11 48 10 3 9 11 12 17 9 13 -9 49 23 49 44 1 14 2 13 11 -1 12 -21 35 -24 42 -5 12 29 6 -34 -8 -80 -17 -58 -45 -91 -45 -53 0 13 -3 20 -8 16 -4 -4 -7 -13 -7 -19 0 -7 -20 -13 -47 -15 -44 -3 -48 -1 -49 20 -1 23 -1 23 -9 -2 -4 -14 -9 -18 -9 -10 -1 8 -8 29 -16 45 l-15 30 5 -40 5 -40 -15 28 c-26 46 -30 30 -8 -31 3 -7 -4 -12 -18 -12 -31 0 -55 -15 -40 -24 6 -4 86 -10 176 -13 91 -3 163 -8 160 -11 -3 -3 -33 -9 -66 -13 -56 -7 -78 -14 -68 -23 2 -2 51 -7 109 -11 104 -7 105 -7 87 12 -29 33 -19 38 14 7 l31 -29 -7 25 c-4 14 -14 36 -22 49 -12 18 -12 22 -1 19 7 -2 21 -20 30 -39 15 -28 18 -30 18 -11 0 12 5 22 10 22 6 0 10 -10 10 -21 0 -20 1 -20 21 6 18 22 20 29 8 36 -19 12 -14 13 166 14 88 1 169 2 180 3 86 3 91 0 111 -49 l18 -48 18 37 c18 37 18 26 2 -38 -7 -25 -7 -25 16 3 26 33 40 29 16 -5 -9 -12 -16 -26 -16 -30 0 -5 92 -8 204 -8 l204 0 -5 23 c-4 21 -4 21 10 -2 14 -24 15 -24 21 -4 4 12 14 27 23 35 15 11 16 11 10 -4 -4 -10 -10 -26 -14 -35 -6 -16 -5 -17 12 -3 11 9 16 10 11 3 -5 -10 12 -13 74 -13 l81 0 -16 30 c-9 17 -11 30 -6 30 5 0 13 -9 16 -20 11 -34 24 -22 18 17 -4 26 -3 34 5 29 7 -4 12 -19 13 -34 1 -27 1 -26 15 7 19 41 30 34 15 -10 -16 -45 -13 -59 5 -26 9 16 18 27 21 24 2 -3 0 -15 -7 -26 -10 -21 -9 -21 84 -21 101 0 107 5 71 54 -14 18 -16 18 -33 3 -25 -23 -68 -21 -93 4 -29 29 -19 43 32 50 24 3 56 12 71 19 22 10 30 11 43 0 20 -17 19 -27 -5 -33 -20 -5 -20 -6 -3 -36 l18 -31 6 28 c6 23 7 24 8 5 1 -28 17 -30 26 -3 3 11 10 20 15 20 5 0 10 10 12 23 2 18 8 21 33 19 36 -4 105 -4 159 -1 55 4 57 -17 4 -31 -24 -6 -56 -16 -73 -22 -58 -20 -85 -21 -105 -3 -19 17 -20 17 -35 -20 -9 -20 -15 -38 -13 -39 2 0 42 0 91 2 80 3 111 14 70 25 -10 3 12 5 50 6 67 1 67 1 61 26 -8 34 4 32 17 -2 l11 -28 10 27 c5 14 16 29 24 32 12 5 11 0 -2 -27 -17 -32 -16 -32 3 -15 24 22 40 24 23 3 -11 -13 -4 -15 52 -15 88 0 188 11 188 21 0 4 -32 11 -70 15 -39 4 -69 9 -67 11 3 2 47 6 98 8 211 11 282 16 292 22 16 10 -15 23 -55 23 -42 0 -43 1 -27 33 10 21 9 21 -10 -2 -19 -21 -21 -21 -21 -5 -1 18 -1 18 -11 2 -10 -18 -59 -26 -59 -10 0 4 14 23 31 41 16 18 28 36 25 39 -3 3 -22 -12 -41 -32 -39 -42 -45 -34 -15 24 37 72 14 65 -25 -8 -22 -41 -25 -43 -21 -17 3 17 8 48 11 70 l5 40 -14 -35 c-7 -20 -17 -55 -21 -78 -4 -23 -10 -42 -14 -42 -7 0 -13 16 -36 95 -2 6 -4 -8 -5 -30 -1 -34 -3 -37 -10 -18 -14 34 -20 28 -9 -9 5 -18 9 -34 9 -35 0 -8 -91 -1 -119 8 -43 15 -39 25 9 21 38 -4 70 9 70 29 0 5 -9 18 -21 30 -16 16 -18 23 -8 35 10 12 9 13 -5 8 -19 -7 -20 0 -6 27 12 21 1 26 -19 7 -6 -7 -38 -14 -69 -15 -31 -1 -75 -4 -97 -6 -22 -2 -52 -4 -67 -5 -23 -2 -28 -7 -28 -29 0 -43 11 -73 26 -73 14 0 34 -30 34 -51 0 -6 -10 -1 -23 13 -13 14 -30 27 -38 30 -11 4 -14 28 -14 114 1 101 3 114 33 181 18 39 32 87 32 107 0 46 19 86 40 86 34 0 53 37 58 114 2 40 1 76 -4 78 -5 3 -35 2 -66 -1 -34 -4 -62 -3 -68 3 -15 15 -40 -13 -40 -44 0 -25 -6 -30 -51 -45 -32 -11 -68 -34 -97 -63 -26 -25 -87 -76 -137 -113 -79 -59 -134 -118 -174 -184 -11 -17 -11 -15 -7 15 3 19 9 85 12 147 l7 112 27 -5 c32 -7 42 5 64 70 16 46 16 50 -4 83 -11 19 -18 38 -15 43 3 5 0 12 -6 15 -6 5 -8 20 -5 40 8 42 -12 61 -40 40 -25 -19 -94 -19 -130 0 -26 13 -30 13 -41 -2 -16 -21 -17 -55 -1 -71 9 -9 9 -12 0 -12 -7 0 -27 -24 -46 -52 -18 -29 -43 -61 -55 -72 -58 -52 -93 -280 -64 -416 29 -137 32 -162 26 -205 -8 -62 -24 -46 -18 18 3 30 0 75 -8 107 l-14 55 -1 -85 c-1 -120 -1 -122 -12 -115 -13 8 -5 421 11 573 6 57 8 106 5 109 -3 4 -6 -3 -6 -15 0 -14 -6 -22 -16 -22 -13 0 -15 6 -9 28 4 18 3 24 -3 17 -6 -5 -13 -100 -16 -210 -4 -110 -9 -251 -12 -314 -3 -63 -3 -133 1 -157 5 -38 10 -44 30 -44 13 0 34 -4 47 -9 13 -5 36 -12 51 -16 24 -5 27 -8 17 -20 -10 -12 -44 -15 -171 -15 -149 0 -159 1 -169 20 -13 24 -6 40 17 40 9 0 30 9 48 20 l32 20 22 -30 c15 -22 30 -30 51 -30 34 0 37 7 15 36 -9 12 -14 14 -15 6 0 -7 -4 -11 -9 -8 -5 4 -12 0 -14 -6 -3 -7 -6 -4 -6 7 -1 12 4 26 11 33 8 8 13 64 16 159 4 118 8 150 20 159 14 10 13 12 -6 18 -20 7 -22 12 -16 54 4 32 -1 78 -16 142 -31 141 -31 140 -20 140 13 0 13 37 0 45 -11 7 -13 48 -4 83 4 13 14 22 26 22 18 0 20 5 15 40 -3 26 -1 38 5 34 14 -9 28 17 22 41 -2 11 4 45 15 75 11 30 20 49 20 43 2 -25 31 -13 31 12 0 14 -7 28 -15 31 -21 8 -19 36 2 32 24 -4 30 32 8 48 -15 11 -16 19 -7 56 6 24 8 55 5 71 -3 16 -1 27 6 27 6 0 11 12 11 26 0 14 -4 23 -8 20 -5 -3 -8 21 -6 52 1 37 -3 67 -13 82 l-14 25 4 -28z m277 -719 c0 20 65 14 94 -9 14 -11 26 -27 26 -35 0 -9 12 -32 28 -51 l27 -36 -32 6 c-36 7 -42 1 -16 -18 23 -17 9 -45 -23 -45 -17 0 -24 4 -21 13 2 6 1 20 -2 31 -6 17 -9 16 -25 -9 -10 -15 -13 -24 -7 -21 6 4 11 3 11 -3 0 -12 39 -26 64 -22 11 2 17 -2 14 -11 -5 -16 -58 -24 -58 -9 0 6 -7 11 -17 11 -9 0 -13 3 -10 7 4 3 -11 14 -33 24 -26 12 -44 29 -54 51 l-14 33 -1 -32 c-1 -25 6 -38 30 -55 28 -21 30 -27 27 -70 -3 -49 6 -53 24 -10 l11 27 7 -33 c13 -57 -14 -252 -56 -409 -23 -87 -24 -94 -8 -117 12 -19 13 -29 5 -43 -9 -16 -10 -15 -11 7 l-1 25 -11 -25 -11 -25 -6 25 -7 25 -7 -25 c-5 -18 -9 -22 -18 -13 -12 12 11 145 31 183 13 24 13 40 0 20 -7 -11 -10 3 -10 48 0 64 7 77 56 110 18 12 18 12 -4 7 -17 -5 -24 -1 -30 16 l-9 23 -5 -22 c-5 -17 -14 -22 -38 -22 -27 0 -31 3 -25 18 14 33 23 82 15 82 -4 0 -11 -12 -15 -27 -9 -38 -44 -85 -57 -76 -8 4 -9 0 -4 -13 4 -10 12 -62 17 -114 10 -110 16 -144 31 -183 8 -21 8 -31 -1 -40 -8 -8 -11 -6 -11 8 0 15 -2 17 -9 6 -11 -17 -32 -5 -24 14 9 24 -7 17 -17 -7 -8 -18 -9 -12 -5 23 4 29 -2 83 -15 144 -23 113 -26 160 -8 149 8 -5 9 -2 5 10 -22 56 -19 125 7 210 15 47 31 88 35 91 5 2 12 -10 16 -28 8 -32 8 -32 16 16 9 60 55 141 75 133 9 -3 14 1 14 13 0 11 6 22 13 25 8 3 6 10 -8 22 -14 11 -16 18 -7 21 6 3 10 10 6 16 -3 7 6 -1 20 -18 14 -16 26 -24 26 -17z m564 -85 c4 -4 23 -6 42 -4 48 4 84 -21 84 -59 0 -27 -3 -30 -30 -30 -30 0 -40 -13 -20 -25 13 -8 3 -25 -16 -25 -8 0 -14 10 -14 22 0 17 -3 19 -12 10 -8 -8 -9 -18 -1 -35 8 -17 7 -29 -3 -48 -7 -13 -13 -44 -14 -69 0 -31 -8 -58 -26 -85 -24 -39 -25 -39 -19 -10 5 28 5 29 -10 10 -33 -41 -44 -154 -29 -269 5 -37 12 -50 30 -58 13 -6 24 -15 24 -20 0 -5 -4 -6 -10 -3 -5 3 -10 0 -11 -7 0 -10 -2 -11 -6 0 -4 10 -8 10 -19 1 -9 -7 -18 -8 -24 -3 -16 17 -52 178 -41 182 6 2 11 8 11 14 0 6 -6 8 -14 5 -9 -4 -16 5 -20 26 -12 54 -17 157 -9 156 25 -4 43 3 43 18 0 13 -3 14 -12 5 -19 -19 -26 -14 -30 16 -4 25 -5 25 -16 -13 -6 -22 -12 -60 -12 -85 0 -43 -3 -48 -50 -83 -57 -43 -68 -72 -51 -135 15 -57 9 -63 -14 -13 -10 23 -16 53 -13 71 4 24 1 30 -10 25 -11 -4 -13 2 -9 27 2 18 1 40 -4 50 -6 11 -4 18 7 22 8 3 12 11 8 17 -5 8 -9 8 -14 -1 -6 -9 -13 -9 -28 -1 -29 15 -55 14 -78 -5 -10 -8 -13 -13 -6 -9 7 4 12 0 12 -10 0 -9 5 -13 10 -10 6 4 8 11 5 16 -9 13 39 11 53 -3 17 -17 15 -82 -3 -126 -9 -20 -32 -53 -51 -73 l-35 -36 32 -7 c17 -3 46 -6 63 -6 31 0 56 -15 56 -33 0 -5 -7 -4 -15 3 -12 10 -15 10 -15 0 0 -10 -3 -10 -14 -1 -8 7 -16 8 -18 3 -1 -4 -37 -6 -79 -4 l-77 4 2 108 1 108 50 74 c36 51 56 72 68 70 13 -2 17 2 15 14 -2 13 19 33 67 66 39 27 96 73 127 103 53 52 69 62 126 79 19 6 22 4 22 -18 0 -28 31 -66 55 -66 10 0 6 8 -10 25 -26 25 -33 76 -15 105 5 9 5 19 -2 27 -11 14 3 19 16 6z m-1105 -88 c8 0 17 7 19 15 5 13 3 13 -11 1 -15 -12 -17 -11 -17 11 0 30 7 38 26 31 16 -6 19 -69 4 -78 -6 -3 -19 -3 -30 0 -17 5 -20 14 -19 53 l2 47 6 -40 c4 -25 11 -40 20 -40z m-576 -30 c-4 -26 -1 -41 12 -55 14 -16 15 -24 6 -53 -14 -40 -2 -106 29 -167 10 -20 16 -40 13 -44 -3 -3 -9 -59 -12 -123 l-6 -118 -27 -3 -28 -3 0 97 c0 98 9 118 19 42 3 -23 12 -43 19 -46 9 -3 12 15 12 67 0 67 -15 106 -22 59 -3 -20 -8 -17 -37 27 -31 48 -32 53 -29 130 5 88 16 122 29 89 5 -10 6 9 2 43 -4 44 -2 68 7 78 18 22 19 19 13 -20z m277 -303 c0 -9 -11 -39 -24 -67 -24 -49 -24 -50 -25 -17 -1 17 3 32 9 32 5 0 13 18 16 40 6 38 24 47 24 12z m-387 -50 c22 -40 26 -56 18 -66 -11 -14 -57 -10 -77 5 -8 7 -12 90 -5 117 1 2 9 2 19 0 9 -2 30 -27 45 -56z m-95 9 c4 -23 -13 -51 -30 -51 -5 0 -2 10 6 22 11 16 12 26 5 41 -9 15 -8 18 3 15 7 -3 14 -15 16 -27z m1212 -120 c6 -15 10 -54 8 -87 l-3 -59 -13 55 c-8 30 -15 93 -17 140 -4 74 -3 78 4 32 5 -29 14 -65 21 -81z m534 0 c22 -87 23 -91 5 -91 -15 0 -19 8 -20 38 -1 37 -1 37 -9 7 l-8 -30 -1 32 c-2 47 -21 52 -22 6 l-1 -38 -9 34 c-13 42 -18 37 -11 -12 3 -28 11 -41 28 -49 30 -14 31 -30 2 -26 -41 6 -98 121 -83 169 4 11 25 33 48 50 49 36 48 37 81 -90z m-1243 -21 c2 -49 -2 -75 -9 -78 -13 -4 -18 139 -5 151 10 11 11 6 14 -73z m1569 -2 c0 -14 -16 -8 -38 13 -12 11 -20 25 -16 30 5 9 53 -29 54 -43z m-1982 -52 c-2 -26 -8 -32 -30 -34 -35 -4 -35 8 -6 78 l22 53 9 -32 c4 -18 7 -47 5 -65z m933 -24 c-8 -12 -10 0 -10 48 l1 65 9 -48 c6 -31 6 -54 0 -65z m571 9 l21 -36 -29 28 c-17 15 -38 27 -47 27 -15 0 -15 2 1 30 16 28 17 28 25 8 4 -12 17 -38 29 -57z m434 -9 c22 0 54 -7 70 -16 l29 -17 -40 7 c-22 4 -59 7 -82 6 -29 -1 -43 3 -43 12 0 18 12 28 20 17 3 -6 24 -10 46 -9z m-667 -98 c-32 -33 -71 -44 -84 -24 -3 6 2 10 13 10 10 0 31 13 46 29 16 17 34 27 43 24 11 -4 7 -14 -18 -39z m785 32 c-6 -16 -31 -24 -56 -18 -29 6 -20 20 15 25 17 2 35 5 39 5 4 1 5 -4 2 -12z" fill="#f0f8ff"/>
<path d="M1653 986 c5 -12 2 -16 -11 -14 -10 2 -17 -3 -17 -12 0 -8 7 -15 15 -15 8 0 20 -4 26 -7 7 -5 9 3 6 23 -2 16 -9 32 -15 36 -6 4 -8 0 -4 -11z" fill="#f0f8ff"/>
<path d="M1354 1678 c17 -79 19 -130 7 -138 -10 -6 -10 -11 0 -28 10 -17 10 -23 -4 -37 -22 -22 -23 -59 -1 -51 13 5 15 -2 9 -49 -5 -36 -4 -55 3 -55 6 0 12 -29 14 -65 3 -56 1 -64 -13 -60 -28 9 -35 -44 -10 -69 l21 -20 1 24 c2 30 20 -65 19 -100 0 -14 1 -38 1 -55 1 -16 2 -45 3 -63 1 -28 3 -30 14 -15 16 23 15 128 -3 227 -8 45 -19 191 -25 325 -6 134 -13 247 -16 252 -13 22 -26 7 -20 -23z" fill="#f0f8ff"/>
<path d="M1599 1613 c-11 -31 -4 -70 17 -94 13 -15 13 -17 -6 -22 -11 -3 -20 -11 -20 -17 0 -7 8 -10 20 -7 11 3 20 1 20 -5 0 -5 5 -6 10 -3 6 3 10 -3 10 -14 0 -11 4 -22 9 -26 17 -10 22 13 9 40 -10 23 -9 28 15 47 22 17 24 23 12 34 -17 18 -26 18 -19 0 3 -8 1 -17 -4 -20 -5 -3 -12 13 -16 35 -12 78 -38 101 -57 52z m49 -65 c15 -58 3 -69 -20 -19 -18 39 -17 61 1 61 5 0 13 -19 19 -42z" fill="#f0f8ff"/>
<path d="M1695 1505 c6 -2 23 -6 38 -9 39 -9 23 -29 -19 -24 -21 2 -33 0 -31 -6 2 -6 21 -12 43 -14 30 -2 45 2 58 17 26 29 12 41 -47 40 -29 0 -47 -2 -42 -4z" fill="#f0f8ff"/>
<path d="M425 1387 c-50 -20 -59 -28 -44 -38 10 -6 6 -9 -12 -9 -36 0 -42 -10 -16 -30 16 -13 26 -15 35 -8 9 8 12 4 12 -14 0 -14 9 -33 20 -43 18 -17 21 -17 45 -1 14 9 25 21 25 26 0 11 -40 25 -60 21 -12 -2 -13 0 -2 10 10 11 16 11 32 1 37 -23 43 -5 8 27 -19 18 -19 21 -4 27 17 6 84 -1 93 -10 7 -7 -24 -104 -50 -156 -17 -35 -28 -45 -47 -45 -19 0 -26 6 -28 25 -5 34 -20 50 -47 50 -32 0 -51 25 -35 45 15 18 -2 45 -30 45 -27 0 -102 -42 -92 -52 4 -4 28 -14 53 -21 30 -9 45 -19 47 -32 2 -18 1 -18 -7 -4 -6 9 -28 20 -48 24 -54 9 -115 48 -157 97 -25 30 -34 37 -30 21 9 -33 72 -101 113 -122 20 -11 62 -27 93 -36 53 -15 59 -15 89 0 41 22 35 -2 -7 -25 -16 -9 -30 -26 -32 -38 -4 -24 9 -28 38 -12 13 7 29 5 54 -5 54 -23 86 -20 86 8 0 12 12 47 26 77 15 30 30 71 33 90 9 50 61 83 116 75 36 -6 137 -64 151 -87 10 -16 -37 -98 -56 -98 -10 0 -28 -12 -40 -27 -13 -16 -32 -28 -49 -29 -16 -1 -42 -12 -59 -24 -41 -30 -67 -23 -66 17 2 36 67 177 97 210 26 29 17 39 -19 21 -31 -15 -30 -14 -80 -127 -25 -57 -37 -100 -38 -135 l-1 -51 37 3 c71 6 93 16 99 48 6 28 6 28 15 7 l9 -22 44 19 c39 18 43 23 37 47 -6 27 -6 27 9 9 15 -19 16 -19 46 10 21 20 29 36 26 52 -3 17 -1 22 10 18 19 -8 33 33 20 61 -5 13 -43 46 -84 74 l-74 51 -72 -6 c-82 -6 -74 -6 -147 -1 -30 2 -68 -2 -85 -8z" fill="#f0f8ff"/>
<path d="M10 1352 c0 -57 82 -152 132 -152 33 0 28 20 -9 35 -50 21 -82 51 -104 100 -15 31 -19 35 -19 17z" fill="#f0f8ff"/>
<path d="M920 1346 c-42 -9 -59 -16 -49 -20 9 -4 24 -22 34 -40 17 -31 17 -33 -8 -83 -30 -58 -90 -114 -156 -144 -25 -11 -53 -24 -62 -29 -9 -5 -32 -11 -50 -15 l-34 -6 1 -234 c1 -207 3 -237 19 -261 10 -15 21 -39 25 -53 8 -25 8 -25 9 6 1 17 6 44 12 60 7 15 18 69 24 118 11 77 10 104 -3 188 -11 63 -21 97 -29 97 -17 0 -17 35 0 47 6 5 41 21 77 36 122 51 220 163 220 254 l0 42 46 7 c25 3 65 4 90 0 54 -7 124 -41 124 -61 0 -8 -16 -54 -37 -104 l-36 -89 -46 -7 c-25 -3 -68 -8 -96 -9 -27 -2 -56 -4 -62 -5 -22 -2 -51 -75 -57 -146 -4 -39 -10 -88 -13 -109 l-5 -40 32 27 c17 15 35 27 40 27 12 0 19 36 10 50 -4 7 -3 26 2 42 8 21 7 33 -1 41 -14 14 -14 74 0 82 6 4 21 -3 35 -16 13 -12 24 -17 24 -11 0 7 12 12 26 12 14 0 32 7 41 15 31 32 48 14 50 -50 2 -107 19 -190 49 -240 35 -61 41 -44 17 48 -11 46 -18 106 -18 167 1 98 4 110 70 268 30 73 29 76 -47 117 -62 34 -161 41 -268 21z m-267 -638 l-11 -43 0 65 c-1 53 1 61 10 43 8 -16 8 -36 1 -65z" fill="#f0f8ff"/>
<path d="M1347 1269 c-6 -24 1 -49 14 -49 5 0 9 16 9 35 0 38 -14 47 -23 14z" fill="#f0f8ff"/>
<path d="M1301 1232 c-14 -27 -11 -64 6 -69 17 -6 26 37 15 67 l-9 24 -12 -22z" fill="#f0f8ff"/>
<path d="M164 1174 c-18 -42 -18 -66 0 -107 29 -69 102 -113 168 -102 42 7 51 16 42 39 -4 10 -18 14 -46 13 -34 -1 -45 4 -69 31 -35 39 -38 83 -9 110 21 19 21 19 -25 35 l-47 15 -14 -34z" fill="#f0f8ff"/>
<path d="M1286 1111 c-19 -37 -16 -47 18 -53 34 -7 46 37 18 65 -20 19 -20 19 -36 -12z" fill="#f0f8ff"/>
<path d="M2090 1091 c-14 -4 -45 -19 -70 -32 -39 -20 -61 -24 -159 -26 -62 -1 -116 -5 -119 -8 -3 -3 1 -16 8 -30 7 -14 10 -28 7 -31 -4 -4 2 -19 13 -34 24 -34 24 -37 4 -97 -20 -58 -40 -83 -69 -83 -18 0 -21 -6 -21 -32 0 -18 -3 -60 -8 -93 l-8 -60 29 37 c15 21 71 70 123 109 52 39 113 90 135 112 22 21 60 47 85 57 35 14 46 24 52 48 10 36 40 57 64 44 8 -5 41 -5 72 -1 78 11 83 5 79 -97 -4 -89 -17 -116 -61 -130 -28 -9 -36 -22 -36 -64 -1 -19 -7 -51 -15 -70 -35 -90 -44 -118 -50 -162 -6 -40 -5 -48 9 -48 9 0 18 12 22 28 3 15 24 57 46 94 35 59 39 73 33 105 -4 25 -3 35 3 28 6 -5 12 -21 14 -35 2 -16 9 -24 18 -21 8 2 35 4 60 5 l45 1 -3 75 c-4 90 -17 111 -27 41 -4 -27 -13 -56 -21 -62 -13 -11 -14 -8 -7 17 4 16 7 93 6 172 -2 168 0 170 86 90 46 -43 60 -65 82 -125 l26 -73 -24 -15 c-30 -20 -30 -59 -1 -79 21 -15 24 -14 41 2 10 10 19 28 20 39 1 25 19 20 64 -18 17 -14 37 -29 45 -31 19 -7 -8 -38 -33 -38 -10 0 -30 -16 -44 -35 l-27 -34 29 -25 c15 -14 33 -26 39 -26 18 0 41 33 49 70 5 23 22 48 51 73 53 47 93 126 99 198 5 45 4 50 -6 29 -50 -114 -86 -152 -158 -166 l-33 -7 21 41 c12 23 21 49 21 58 0 15 -5 13 -28 -9 -35 -33 -67 -34 -87 -4 -15 23 -49 127 -43 131 2 1 15 10 30 19 23 15 55 83 44 94 -7 7 -81 -39 -101 -63 l-21 -24 -37 51 c-41 53 -72 72 -98 58 -12 -6 -38 2 -85 26 -73 37 -133 49 -174 36z m123 -58 l32 -18 -67 -5 c-68 -5 -110 -29 -123 -70 -3 -9 -23 -24 -45 -34 -23 -10 -67 -41 -98 -70 -67 -61 -127 -108 -162 -126 -23 -12 -23 -11 6 22 38 44 68 128 60 169 -3 16 -9 43 -12 59 l-6 30 78 0 c64 1 92 6 149 30 81 33 142 37 188 13z m100 -335 c-3 -27 -8 -48 -12 -48 -3 0 -17 9 -31 20 l-25 20 34 30 c19 16 36 29 37 27 1 -1 0 -23 -3 -49z m244 -3 c6 -20 -14 -38 -33 -30 -17 7 -16 9 6 15 l25 8 -27 1 c-16 1 -28 6 -28 12 0 13 52 8 57 -6z" fill="#f0f8ff"/>
<path d="M1350 1055 c-12 -22 -12 -28 2 -41 13 -13 16 -13 27 0 14 16 8 66 -8 66 -4 0 -14 -11 -21 -25z" fill="#f0f8ff"/>
<path d="M1250 1025 c0 -8 10 -23 22 -34 16 -16 25 -18 35 -10 20 18 15 46 -9 53 -36 9 -48 7 -48 -9z" fill="#f0f8ff"/>
<path d="M1217 1014 c-11 -11 -8 -44 3 -44 15 0 24 30 13 41 -5 5 -12 6 -16 3z" fill="#f0f8ff"/>
<path d="M1323 964 c-10 -21 -9 -26 3 -31 20 -8 48 21 41 41 -9 24 -30 19 -44 -10z" fill="#f0f8ff"/>
<path d="M847 960 c-4 -9 -15 -58 -25 -110 -16 -88 -19 -95 -41 -95 -20 0 -26 10 -46 73 -21 67 -43 108 -52 99 -2 -2 6 -42 17 -88 11 -46 20 -102 20 -123 0 -37 1 -38 18 -23 27 24 58 21 81 -9 l21 -27 0 50 c0 27 5 86 11 130 11 84 9 151 -4 123z" fill="#f0f8ff"/>
<path d="M1244 945 c-3 -14 -3 -32 0 -41 6 -15 8 -15 26 1 24 22 26 51 4 59 -23 9 -23 8 -30 -19z" fill="#f0f8ff"/>
<path d="M1360 925 c-14 -16 -6 -35 16 -35 8 0 14 10 14 25 0 28 -12 32 -30 10z" fill="#f0f8ff"/>
<path d="M1220 871 c0 -5 6 -14 14 -20 10 -8 16 -8 25 3 9 11 8 15 -5 20 -22 8 -34 8 -34 -3z" fill="#f0f8ff"/>
<path d="M931 633 c-12 -43 -13 -87 -1 -123 6 -18 8 -7 9 42 1 37 5 78 11 92 6 16 6 26 0 26 -5 0 -14 -17 -19 -37z" fill="#f0f8ff"/>
<path d="M2416 653 c-12 -12 -6 -48 14 -80 38 -63 190 -146 190 -105 0 12 -57 62 -71 62 -22 0 -72 44 -99 86 -15 24 -30 41 -34 37z" fill="#f0f8ff"/>
<path d="M2295 578 c-11 -5 -30 -25 -43 -45 l-22 -35 20 -25 c11 -14 20 -33 20 -42 0 -13 11 -16 55 -16 30 0 55 3 55 6 0 11 -52 154 -58 160 -4 4 -16 2 -27 -3z m25 -100 c0 -13 -17 -9 -30 7 -6 8 -8 20 -4 26 5 9 11 7 21 -6 7 -11 13 -22 13 -27z" fill="#f0f8ff"/>
<path d="M930 162 c-34 -46 -53 -48 -107 -13 -56 37 -105 41 -127 10 -12 -17 -20 -20 -43 -14 -15 4 -41 9 -58 12 -16 3 -34 9 -40 14 -5 5 -12 9 -15 9 -6 0 -30 -44 -30 -54 0 -2 32 -7 70 -10 40 -4 68 -11 65 -17 -4 -5 16 -9 45 -9 l50 0 -15 36 c-19 45 -19 50 -1 35 8 -7 18 -27 23 -44 l7 -32 7 45 6 45 2 -45 2 -45 15 34 c8 19 17 31 20 28 3 -3 1 -14 -5 -25 -20 -38 -14 -42 75 -42 65 0 85 3 81 13 -22 60 -18 76 8 30 l15 -28 -6 30 c-15 69 -19 72 -44 37z" fill="#f0f8ff"/>
</g>
</svg>